<svg width="125" height="125" viewBox="0 0 125 125" fill="none" xmlns="http://www.w3.org/2000/svg">

<path fill-rule="evenodd" clip-rule="evenodd" d="M93.0094 9.10653C92.5539 9.95824 92.1809 11.3943 92.1809 12.2981C92.1809 13.4187 91.2907 14.3129 89.3792 15.1118C85.6801 16.6575 85.6601 19.3495 89.3063 25.1963C92.4322 30.2073 93.0126 30.8758 97.8075 34.9726L101.318 37.972L100.391 42.3883C99.3501 47.3513 95.5301 56.388 94.4726 56.388C94.0932 56.388 93.7811 56.8387 93.7811 57.3886C93.7803 57.9394 92.9037 59.4083 91.8327 60.653C87.9935 65.1173 83.4764 72.8765 82.1988 77.2007C81.484 79.6222 80.6459 82.4743 80.3361 83.5389C80.0263 84.6036 79.2674 85.6434 78.6486 85.8483C77.7425 86.1493 77.6161 85.4417 77.9987 82.2101L78.4742 78.1981L75.1209 77.8163C73.2774 77.6057 70.0218 76.6355 67.8877 75.6605C63.5971 73.7001 56.9595 68.0103 56.9595 66.2924C56.9595 65.6881 56.6489 65.1934 56.2687 65.1934C55.8885 65.1934 54.9454 63.1834 54.173 60.7275C52.5712 55.6356 52.8666 52.3296 55.389 47.1192L57.0996 43.5851L55.4378 38.4411C53.2636 31.7114 51.0719 28.006 46.53 23.3832C38.7845 15.4984 25.8758 12.2837 13.0328 15.0397L8.72938 15.9635L8.59011 31.1727C8.51407 39.5378 8.70618 47.1296 9.01757 48.043C9.75962 50.2171 18.621 54.1723 28.7544 56.8531C39.6682 59.7397 45.6334 62.8808 51.7987 68.9845C57.8576 74.9849 62.7038 82.8865 67.8813 95.2092C75.0264 112.213 75.9142 113.692 79.6501 114.813C81.4792 115.361 85.0525 115.999 87.5909 116.23C93.0694 116.728 94.1437 116.007 97.9572 109.273C99.3444 106.823 100.728 104.637 101.033 104.417C102.217 103.559 108.09 90.9338 109.636 85.9228C110.534 83.0146 111.863 75.45 112.59 69.1126C113.316 62.7743 114.605 53.9153 115.453 49.4254C116.302 44.9355 116.998 38.6317 117 35.4169C117.004 28.9025 114.117 12.4926 112.704 10.9981C111.341 9.55639 102.826 7.55838 98.0444 7.55838C94.7048 7.55838 93.6674 7.87778 93.0094 9.10653Z" fill="currentColor"/>
<path fill-rule="evenodd" clip-rule="evenodd" d="M93.0094 9.10653C92.5539 9.95824 92.1809 11.3943 92.1809 12.2981C92.1809 13.4187 91.2907 14.3129 89.3792 15.1118C85.6801 16.6575 85.6601 19.3495 89.3063 25.1963C92.4322 30.2073 93.0126 30.8758 97.8075 34.9726L101.318 37.972L100.391 42.3883C99.3501 47.3513 95.5301 56.388 94.4726 56.388C94.0932 56.388 93.7811 56.8387 93.7811 57.3886C93.7803 57.9394 92.9037 59.4083 91.8327 60.653C87.9935 65.1173 83.4764 72.8765 82.1988 77.2007C81.484 79.6222 80.6459 82.4743 80.3361 83.5389C80.0263 84.6036 79.2674 85.6434 78.6486 85.8483C77.7425 86.1493 77.6161 85.4417 77.9987 82.2101L78.4742 78.1981L75.1209 77.8163C73.2774 77.6057 70.0218 76.6355 67.8877 75.6605C63.5971 73.7001 56.9595 68.0103 56.9595 66.2924C56.9595 65.6881 56.6489 65.1934 56.2687 65.1934C55.8885 65.1934 54.9454 63.1834 54.173 60.7275C52.5712 55.6356 52.8666 52.3296 55.389 47.1192L57.0996 43.5851L55.4378 38.4411C53.2636 31.7114 51.0719 28.006 46.53 23.3832C38.7845 15.4984 25.8758 12.2837 13.0328 15.0397L8.72938 15.9635L8.59011 31.1727C8.51407 39.5378 8.70618 47.1296 9.01757 48.043C9.75962 50.2171 18.621 54.1723 28.7544 56.8531C39.6682 59.7397 45.6334 62.8808 51.7987 68.9845C57.8576 74.9849 62.7038 82.8865 67.8813 95.2092C75.0264 112.213 75.9142 113.692 79.6501 114.813C81.4792 115.361 85.0525 115.999 87.5909 116.23C93.0694 116.728 94.1437 116.007 97.9572 109.273C99.3444 106.823 100.728 104.637 101.033 104.417C102.217 103.559 108.09 90.9338 109.636 85.9228C110.534 83.0146 111.863 75.45 112.59 69.1126C113.316 62.7743 114.605 53.9153 115.453 49.4254C116.302 44.9355 116.998 38.6317 117 35.4169C117.004 28.9025 114.117 12.4926 112.704 10.9981C111.341 9.55639 102.826 7.55838 98.0444 7.55838C94.7048 7.55838 93.6674 7.87778 93.0094 9.10653Z" fill="currentColor"/>
<path fill-rule="evenodd" clip-rule="evenodd" d="M57.0019 50.5845C55.7379 55.1337 55.9901 57.9922 58.041 62.3973C61.335 69.4704 69.3558 74.7992 76.7083 74.7992H80.3145L79.7525 71.3972C77.8618 59.9534 72.5506 52.7138 63.1889 48.8202C58.7878 46.9903 57.9321 47.2337 57.0019 50.5845Z" fill="currentColor"/>
<path fill-rule="evenodd" clip-rule="evenodd" d="M15.0004 56.4865C15.9177 57.5327 17.4715 59.2898 18.4529 60.3905C19.4351 61.4911 22.2039 66.3005 24.607 71.077C30.2833 82.3614 32.9497 86.1477 38.0039 90.1013C40.2845 91.8848 42.9637 94.0349 43.9579 94.8786C44.9514 95.7223 45.9119 96.4124 46.0921 96.4124C46.2722 96.4124 49.0611 98.1662 52.2894 100.31C60.1078 105.501 70.5677 111.157 70.5677 110.194C70.5677 109.768 68.2471 106.39 65.4118 102.686C59.8941 95.4782 56.3151 92.5052 48.3054 88.4755C42.1489 85.3776 36.9505 80.6748 36.9489 78.2013C36.9465 75.6413 37.9255 75.9583 40.708 79.4212C42.1857 81.2599 45.5477 83.687 49.3012 85.625C52.6928 87.3757 57.6038 90.5176 60.2158 92.6068C62.8278 94.6961 64.9643 96.1906 64.9643 95.9265C64.9643 94.7097 58.4516 81.7338 56.1934 78.4518C52.3791 72.9077 45.27 66.3357 40.6592 64.0919C38.3978 62.9912 32.4045 60.9476 27.3415 59.5508C22.2784 58.1531 17.0552 56.4641 15.7344 55.7965L13.3329 54.5837L15.0004 56.4865Z" fill="var(--primary)"/>
<path fill-rule="evenodd" clip-rule="evenodd" d="M93.0094 9.10653C92.5539 9.95824 92.1809 11.3943 92.1809 12.2981C92.1809 13.4187 91.2907 14.3129 89.3792 15.1118C85.6801 16.6575 85.6601 19.3495 89.3063 25.1963C92.4322 30.2073 93.0126 30.8758 97.8075 34.9726L101.318 37.972L100.391 42.3883C99.3501 47.3513 95.5301 56.388 94.4726 56.388C94.0932 56.388 93.7811 56.8387 93.7811 57.3886C93.7803 57.9394 92.9037 59.4083 91.8327 60.653C87.9935 65.1173 83.4764 72.8765 82.1988 77.2007C81.484 79.6222 80.6459 82.4743 80.3361 83.5389C80.0263 84.6036 79.2674 85.6434 78.6486 85.8483C77.7425 86.1493 77.6161 85.4417 77.9987 82.2101L78.4742 78.1981L75.1209 77.8163C73.2774 77.6057 70.0218 76.6355 67.8877 75.6605C63.5971 73.7001 56.9595 68.0103 56.9595 66.2924C56.9595 65.6881 56.6489 65.1934 56.2687 65.1934C55.8885 65.1934 54.9454 63.1834 54.173 60.7275C52.5712 55.6356 52.8666 52.3296 55.389 47.1192L57.0996 43.5851L55.4378 38.4411C53.2636 31.7114 51.0719 28.006 46.53 23.3832C38.7845 15.4984 25.8758 12.2837 13.0328 15.0397L8.72938 15.9635L8.59011 31.1727C8.51407 39.5378 8.70618 47.1296 9.01757 48.043C9.75962 50.2171 18.621 54.1723 28.7544 56.8531C39.6682 59.7397 45.6334 62.8808 51.7987 68.9845C57.8576 74.9849 62.7038 82.8865 67.8813 95.2092C75.0264 112.213 75.9142 113.692 79.6501 114.813C81.4792 115.361 85.0525 115.999 87.5909 116.23C93.0694 116.728 94.1437 116.007 97.9572 109.273C99.3444 106.823 100.728 104.637 101.033 104.417C102.217 103.559 108.09 90.9338 109.636 85.9228C110.534 83.0146 111.863 75.45 112.59 69.1126C113.316 62.7743 114.605 53.9153 115.453 49.4254C116.302 44.9355 116.998 38.6317 117 35.4169C117.004 28.9025 114.117 12.4926 112.704 10.9981C111.341 9.55639 102.826 7.55838 98.0444 7.55838C94.7048 7.55838 93.6674 7.87778 93.0094 9.10653Z" fill="currentColor"/>
<path fill-rule="evenodd" clip-rule="evenodd" d="M93.0094 9.10653C92.5539 9.95824 92.1809 11.3943 92.1809 12.2981C92.1809 13.4187 91.2907 14.3129 89.3792 15.1118C85.6801 16.6575 85.6601 19.3495 89.3063 25.1963C92.4322 30.2073 93.0126 30.8758 97.8075 34.9726L101.318 37.972L100.391 42.3883C99.3501 47.3513 95.5301 56.388 94.4726 56.388C94.0932 56.388 93.7811 56.8387 93.7811 57.3886C93.7803 57.9394 92.9037 59.4083 91.8327 60.653C87.9935 65.1173 83.4764 72.8765 82.1988 77.2007C81.484 79.6222 80.6459 82.4743 80.3361 83.5389C80.0263 84.6036 79.2674 85.6434 78.6486 85.8483C77.7425 86.1493 77.6161 85.4417 77.9987 82.2101L78.4742 78.1981L75.1209 77.8163C73.2774 77.6057 70.0218 76.6355 67.8877 75.6605C63.5971 73.7001 56.9595 68.0103 56.9595 66.2924C56.9595 65.6881 56.6489 65.1934 56.2687 65.1934C55.8885 65.1934 54.9454 63.1834 54.173 60.7275C52.5712 55.6356 52.8666 52.3296 55.389 47.1192L57.0996 43.5851L55.4378 38.4411C53.2636 31.7114 51.0719 28.006 46.53 23.3832C38.7845 15.4984 25.8758 12.2837 13.0328 15.0397L8.72938 15.9635L8.59011 31.1727C8.51407 39.5378 8.70618 47.1296 9.01757 48.043C9.75962 50.2171 18.621 54.1723 28.7544 56.8531C39.6682 59.7397 45.6334 62.8808 51.7987 68.9845C57.8576 74.9849 62.7038 82.8865 67.8813 95.2092C75.0264 112.213 75.9142 113.692 79.6501 114.813C81.4792 115.361 85.0525 115.999 87.5909 116.23C93.0694 116.728 94.1437 116.007 97.9572 109.273C99.3444 106.823 100.728 104.637 101.033 104.417C102.217 103.559 108.09 90.9338 109.636 85.9228C110.534 83.0146 111.863 75.45 112.59 69.1126C113.316 62.7743 114.605 53.9153 115.453 49.4254C116.302 44.9355 116.998 38.6317 117 35.4169C117.004 28.9025 114.117 12.4926 112.704 10.9981C111.341 9.55639 102.826 7.55838 98.0444 7.55838C94.7048 7.55838 93.6674 7.87778 93.0094 9.10653Z" fill="currentColor"/>
<path fill-rule="evenodd" clip-rule="evenodd" d="M57.0019 50.5845C55.7379 55.1337 55.9901 57.9922 58.041 62.3973C61.335 69.4704 69.3558 74.7992 76.7083 74.7992H80.3145L79.7525 71.3972C77.8618 59.9534 72.5506 52.7138 63.1889 48.8202C58.7878 46.9903 57.9321 47.2337 57.0019 50.5845Z" fill="currentColor"/>
<path fill-rule="evenodd" clip-rule="evenodd" d="M15.0004 56.4865C15.9177 57.5327 17.4715 59.2898 18.4529 60.3905C19.4351 61.4911 22.2039 66.3005 24.607 71.077C30.2833 82.3614 32.9497 86.1477 38.0039 90.1013C40.2845 91.8848 42.9637 94.0349 43.9579 94.8786C44.9514 95.7223 45.9119 96.4124 46.0921 96.4124C46.2722 96.4124 49.0611 98.1662 52.2894 100.31C60.1078 105.501 70.5677 111.157 70.5677 110.194C70.5677 109.768 68.2471 106.39 65.4118 102.686C59.8941 95.4782 56.3151 92.5052 48.3054 88.4755C42.1489 85.3776 36.9505 80.6748 36.9489 78.2013C36.9465 75.6413 37.9255 75.9583 40.708 79.4212C42.1857 81.2599 45.5477 83.687 49.3012 85.625C52.6928 87.3757 57.6038 90.5176 60.2158 92.6068C62.8278 94.6961 64.9643 96.1906 64.9643 95.9265C64.9643 94.7097 58.4516 81.7338 56.1934 78.4518C52.3791 72.9077 45.27 66.3357 40.6592 64.0919C38.3978 62.9912 32.4045 60.9476 27.3415 59.5508C22.2784 58.1531 17.0552 56.4641 15.7344 55.7965L13.3329 54.5837L15.0004 56.4865Z" fill="var(--primary)"/>
<path fill-rule="evenodd" clip-rule="evenodd" d="M93.0094 9.10653C92.5539 9.95824 92.1809 11.3943 92.1809 12.2981C92.1809 13.4187 91.2907 14.3129 89.3792 15.1118C85.6801 16.6575 85.6601 19.3495 89.3063 25.1963C92.4322 30.2073 93.0126 30.8758 97.8075 34.9726L101.318 37.972L100.391 42.3883C99.3501 47.3513 95.5301 56.3881 94.4727 56.3881C94.0932 56.3881 93.7811 56.8387 93.7811 57.3887C93.7803 57.9394 92.9037 59.4083 91.8327 60.653C87.9936 65.1174 83.4764 72.8765 82.1988 77.2007C81.484 79.6222 80.6459 82.4743 80.3361 83.5389C80.0263 84.6036 79.2674 85.6434 78.6486 85.8484C77.7425 86.1493 77.6161 85.4417 77.9987 82.2101L78.4742 78.1981L75.1209 77.8163C73.2774 77.6058 70.0218 76.6355 67.8877 75.6605C63.5971 73.7002 56.9595 68.0103 56.9595 66.2925C56.2687 65.2608 56.9625 66.3582 56.2687 65.1934C55.8885 65.1934 54.9455 63.1834 54.173 60.7275C52.5712 55.6356 52.8666 52.3296 55.389 47.1192L57.0996 43.5851L55.4378 38.4411C53.2636 31.7114 51.0719 28.006 46.53 23.3832C38.7845 15.4984 25.8758 12.2837 13.0328 15.0397L8.72938 15.9635L8.59011 31.1727C8.51407 39.5378 8.70618 47.1296 9.01757 48.043C9.75962 50.2171 18.621 54.1723 28.7544 56.8531C39.6682 59.7397 45.6334 62.8808 51.7987 68.9845C57.8576 74.9849 62.7038 82.8866 67.8813 95.2092C75.0265 112.213 75.9142 113.692 79.6501 114.813C81.4792 115.361 85.0526 115.999 87.5909 116.23C93.0694 116.728 94.1437 116.007 97.9572 109.273C99.3444 106.823 100.728 104.637 101.033 104.417C102.217 103.559 108.09 90.9338 109.636 85.9228C110.534 83.0146 111.863 75.45 112.59 69.1126C113.316 62.7743 114.605 53.9153 115.453 49.4254C116.302 44.9355 116.998 38.6317 117 35.4169C117.004 28.9025 114.117 12.4926 112.704 10.9981C111.341 9.55639 102.826 7.55838 98.0445 7.55838C94.7048 7.55838 93.6674 7.87778 93.0094 9.10653Z" fill="currentColor"/>
<path fill-rule="evenodd" clip-rule="evenodd" d="M57.0019 50.5845C55.7379 55.1337 55.9901 57.9922 58.041 62.3973C61.335 69.4704 69.3558 74.7992 76.7083 74.7992H80.3145L79.7525 71.3972C77.8618 59.9534 72.5506 52.7138 63.1889 48.8202C58.7878 46.9903 57.9321 47.2337 57.0019 50.5845Z" fill="currentColor"/>
<path fill-rule="evenodd" clip-rule="evenodd" d="M15.0004 56.4865C15.9177 57.5327 17.4715 59.2898 18.4529 60.3905C19.4351 61.4911 22.2039 66.3005 24.607 71.077C30.2833 82.3614 32.9497 86.1477 38.0039 90.1013C40.2845 91.8848 42.9637 94.0349 43.9579 94.8786C44.9514 95.7223 45.9119 96.4124 46.0921 96.4124C46.2722 96.4124 49.0611 98.1662 52.2894 100.31C60.1078 105.501 70.5677 111.157 70.5677 110.194C70.5677 109.768 68.2471 106.39 65.4118 102.686C59.8941 95.4782 56.3151 92.5052 48.3054 88.4755C42.1489 85.3776 36.9505 80.6748 36.9489 78.2013C36.9465 75.6413 37.9255 75.9583 40.708 79.4212C42.1857 81.2599 45.5477 83.687 49.3012 85.625C52.6928 87.3757 57.6038 90.5176 60.2158 92.6068C62.8278 94.6961 64.9643 96.1906 64.9643 95.9265C64.9643 94.7097 58.4516 81.7338 56.1934 78.4518C52.3791 72.9077 45.27 66.3357 40.6592 64.0919C38.3978 62.9912 32.4045 60.9476 27.3415 59.5508C22.2784 58.1531 17.0552 56.4641 15.7344 55.7965L13.3329 54.5837L15.0004 56.4865Z" fill="var(--primary)"/>
</svg>
