<svg width="125" height="125" viewBox="0 0 125 125" fill="none" xmlns="http://www.w3.org/2000/svg">

<path fill-rule="evenodd" clip-rule="evenodd" d="M87.6607 3.80963C86.2234 4.24031 83.889 5.91159 82.4742 7.52397C80.3722 9.91805 79.9008 11.1728 79.9033 14.3685C79.9083 21.3773 84.5255 26.168 91.2688 26.1613C97.4959 26.1555 102.415 21.3582 102.508 15.2008C102.635 6.83023 95.5989 1.43214 87.6607 3.80963Z" fill="currentColor"/>
<path fill-rule="evenodd" clip-rule="evenodd" d="M40.7706 32.7278C32.1909 41.3623 31.3428 43.0875 33.8912 46.7255C36.3891 50.2922 39.696 48.7628 49.0258 39.7267C53.5086 35.3841 53.7045 35.2929 58.5092 35.2929C64.2417 35.2929 64.2476 35.3426 59.4328 43.8858C53.6688 54.1128 50.0258 62.4991 50.0258 65.538C50.0258 70.2789 51.9535 72.9401 59.7731 78.9963C63.7687 82.0899 67.2242 84.821 67.4524 85.0649C67.7885 85.4234 74.0621 90.0954 74.6753 90.444C74.8612 90.5485 71.4082 103.775 69.483 110.337C67.8831 115.789 67.9694 118.536 69.8125 120.813C71.697 123.14 75.862 123.334 78.2146 121.204C79.1249 120.38 80.836 116.538 82.0169 112.666C83.1986 108.793 85.2881 102.217 86.6615 98.0511C90.4813 86.4616 90.1012 84.9529 81.07 75.8794L73.76 68.5362L75.2297 65.3994C76.0379 63.6742 78.2403 59.6901 80.124 56.5459C83.3737 51.1212 83.5911 50.9312 84.3711 52.8116C87.2955 59.8644 88.6365 62.0552 90.4497 62.7448C91.5534 63.1646 97.2602 63.5074 103.133 63.5074H113.811L115.583 61.0187C119.223 55.906 116.033 53.7095 103.891 52.9701C96.0179 52.4904 95.7706 52.4141 95.2586 50.3155C93.4844 43.0386 89.1875 33.0498 86.7976 30.6441C82.002 25.8194 76.6727 24.505 61.9008 24.505H48.942L40.7706 32.7278Z" fill="currentColor"/>
<path fill-rule="evenodd" clip-rule="evenodd" d="M42.471 75.7475L38.7226 82.1788L26.7397 82.6136C19.2621 82.8841 14.0382 83.4509 12.8441 84.1197C10.4027 85.4873 9.36459 88.2582 10.3322 90.8248C11.8143 94.7566 12.8889 94.9865 29.8749 95.0147L45.8211 95.0412L51.6582 89.0283C56.9144 83.6136 58.6387 80.934 56.8679 80.934C55.6936 80.934 49.2873 74.3891 47.9728 71.8481C47.2534 70.4556 46.5638 69.3163 46.4418 69.3163C46.3198 69.3163 44.5331 72.2099 42.471 75.7475Z" fill="currentColor"/>
</svg>
