<svg width="125" height="125" viewBox="0 0 125 125" fill="none" xmlns="http://www.w3.org/2000/svg">

<path fill-rule="evenodd" clip-rule="evenodd" d="M101.025 15.8621C100.348 16.2571 99.3592 17.6324 98.8266 18.9171C98.1732 20.4952 97.4887 21.1121 96.7206 20.8173C94.793 20.0781 92.965 21.1189 91.9689 23.5252C90.7935 26.3629 91.9667 32.5619 94.7353 38.1425C95.7367 40.162 96.5564 42.2932 96.5564 42.8782C96.5564 43.464 98.351 44.8392 100.545 45.9355C102.74 47.0311 106.125 49.2519 108.07 50.8703L111.605 53.8129L114.244 47.1808C117.428 39.1773 119.094 33.4927 119.767 28.3376C120.249 24.6405 120.166 24.3966 117.72 22.3331C114.902 19.9557 105.241 15.0841 103.416 15.1198C102.778 15.1327 101.702 15.4662 101.025 15.8621Z" fill="currentColor"/>
<path fill-rule="evenodd" clip-rule="evenodd" d="M6.90288 43.2087C6.90288 56.1629 7.19995 66.7618 7.56388 66.7618C9.06216 66.7618 14.819 72.6842 17.8513 77.3454C20.6351 81.6237 30.5791 92.5941 31.6739 92.5941C31.876 92.5941 33.821 93.9116 35.997 95.5223C38.173 97.1323 40.466 98.6708 41.0928 98.9413C41.7196 99.211 44.9677 100.946 48.3107 102.798C58.7067 108.556 62.6234 110.267 66.2635 110.643C69.3109 110.956 70.0965 110.722 72.1517 108.891C73.4563 107.73 74.523 106.468 74.523 106.088C74.523 105.707 72.8006 103.114 70.6945 100.325C65.3844 93.2901 62.8885 87.9018 62.5086 82.6525L62.1926 78.2807L57.7691 78.2594C49.4891 78.2199 42.3845 72.8271 38.2528 63.4453C36.9338 60.4511 37.0508 54.4838 38.4997 50.8634C39.6074 48.0941 39.6021 47.4946 38.4298 43.4632C36.6192 37.2338 34.5792 33.5649 30.579 29.3397C26.7232 25.2666 20.2035 21.8111 13.8936 20.4952C6.14462 18.8791 6.90288 16.4152 6.90288 43.2087Z" fill="currentColor"/>
<path fill-rule="evenodd" clip-rule="evenodd" d="M92.1042 50.2366C89.1783 54.4443 85.1059 58.2325 79.4608 61.9995C74.0892 65.5833 69.1764 70.7058 66.9791 75.0137C65.2719 78.3605 64.8875 84.2944 66.1616 87.645L66.9176 89.6333L70.5303 87.1792C78.4639 81.7894 89.1319 69.0092 95.7557 56.9599C99.5432 50.0695 100.041 48.5165 98.7272 47.6838C96.4083 46.2151 94.3493 47.0083 92.1042 50.2366Z" fill="var(--primary)"/>
<path fill-rule="evenodd" clip-rule="evenodd" d="M99.6844 55.1942C95.685 63.1445 86.5001 76.537 81.5045 81.702C79.0132 84.2784 75.0662 87.6533 72.7329 89.2025C68.8854 91.7569 68.5701 92.1702 69.3504 93.6366C70.5599 95.9113 75.8579 103.027 76.7544 103.581C78.0536 104.384 87.9064 94.7785 93.6662 87.0941C95.3142 84.8953 99.572 77.1411 103.127 69.8617C110.266 55.2451 110.286 55.0931 105.407 51.7501C104.039 50.8133 102.771 50.0551 102.588 50.0657C102.404 50.0763 101.098 52.3838 99.6844 55.1942Z" fill="var(--primary)"/>
<path fill-rule="evenodd" clip-rule="evenodd" d="M41.0625 51.9834C39.3203 54.0819 39.8407 60.5217 42.114 65.0074C45.3354 71.366 51.5869 75.2553 58.69 75.3229C61.1342 75.3457 63.3581 75.1406 63.6324 74.8671C64.2493 74.2494 62.7191 69.0198 60.6009 64.5105C58.5829 60.2148 53.636 55.3119 49.2308 53.2408C44.0195 50.7912 42.2743 50.5223 41.0625 51.9834Z" fill="currentColor"/>
</svg>
