<svg width="125" height="125" viewBox="0 0 125 125" fill="none" xmlns="http://www.w3.org/2000/svg">
  <path
    fill="currentColor"
    d="M52 20h22v8H52v-8Zm-4 26c0-6 5-11 11-11h8c6 0 11 5 11 11v4H48v-4Z"
  />
  <path
    fill="currentColor"
    d="M50 52h28l-2 48H52l-2-48Z"
  />
  <path
    fill="var(--primary)"
    fill-rule="evenodd"
    clip-rule="evenodd"
    d="M46 54c10 2 18 10 20 20 2 12-4 24-14 30l-6-3c8-5 12-15 11-25-1-7-5-13-11-16l0-6Z"
  />
  <path
    fill="var(--primary)"
    fill-rule="evenodd"
    clip-rule="evenodd"
    d="M80 54c-10 2-18 10-20 20-2 12 4 24 14 30l6-3c-8-5-12-15-11-25 1-7 5-13 11-16l0-6Z"
  />
  <path
    fill="currentColor"
    d="M44 98h38v10c0 5-4 9-9 9H53c-5 0-9-4-9-9v-10Z"
  />
</svg>
