<svg width="125" height="125" viewBox="0 0 125 125" fill="none" xmlns="http://www.w3.org/2000/svg">

<path fill-rule="evenodd" clip-rule="evenodd" d="M57.4039 6.00734C56.504 7.14694 55.3996 8.51068 54.9496 9.03671C53.4485 10.7931 51.2683 16.1615 51.2683 18.102C51.2683 19.1565 51.8524 20.5047 52.5657 21.097C53.4157 21.8022 53.7119 22.9311 53.4247 24.3685C53.1834 25.5752 53.4648 27.2179 54.0506 28.0188C54.9497 29.2492 55.7367 29.3711 59.1227 28.8075C61.3267 28.441 65.1553 28.0785 67.63 28.0016C70.1047 27.9247 73.4761 27.2212 75.1221 26.4383C76.7681 25.6546 79.345 25.1318 80.8487 25.2758C83.307 25.5114 83.9345 26.156 87.076 31.6732C92.6333 41.4322 95.5956 51.6002 96.0692 62.5356L96.4676 71.7187L93.5872 74.5992C91.2229 76.9634 90.2853 77.3954 88.353 77.0084C86.3626 76.6108 85.412 77.109 82.1945 80.2358C71.6681 90.4668 56.3928 92.485 41.7432 85.5812C38.9789 84.2788 36.4731 83.2128 36.1737 83.2128C35.8751 83.2128 34.0867 84.8604 32.2002 86.8738C28.7307 90.5772 19.8218 95.8645 18.4645 95.0252C16.9339 94.0795 17.855 92.9922 21.9389 90.9225C25.9779 88.8756 33.2703 82.3759 33.2703 80.8223C33.2703 80.4125 33.546 79.9544 33.8839 79.8038C34.2217 79.6541 35.39 77.8748 36.4813 75.85C37.5726 73.8252 38.6852 71.9845 38.9528 71.7596C39.2203 71.5346 39.887 70.4302 40.4335 69.3053C40.9808 68.1804 42.2521 66.2334 43.2584 64.9793L45.0892 62.6984L42.6571 60.447C37.0981 55.3021 26.5325 52.3831 18.3287 53.7256C15.7346 54.1502 13.25 54.7221 12.8066 54.9961C12.2986 55.3094 12 67.4646 12 87.8088V120.123L16.7261 117.604C21.8923 114.85 26.7272 110.643 30.4593 105.651C35.3016 99.1754 34.8328 99.393 39.8592 101.305C45.5024 103.452 55.074 105.301 60.5438 105.301C67.2071 105.301 76.2862 103.242 87.7329 99.1361C93.5495 97.0499 100.443 94.5826 103.052 93.6532C109.326 91.4182 114.624 85.7489 113.94 82.0012C113.693 80.6424 113.094 76.2181 112.611 72.1686C112.128 68.1191 111.186 62.597 110.519 59.8973C109.138 54.3097 103.259 41.8961 97.1679 31.7043C94.892 27.8961 92.3821 22.9794 91.5902 20.7771C89.3208 14.4647 86.253 11.7397 77.6884 8.4297C64.5 3.33219 59.9441 2.78816 57.4039 6.00734Z" fill="currentColor"/>
<path fill-rule="evenodd" clip-rule="evenodd" d="M79.5234 30.2416C80.663 33.5671 80.8773 44.1515 79.9365 50.5891C79.1454 55.9975 79.2158 57.6729 80.4266 62.2166C81.846 67.5415 84.4884 71.4872 87.8237 73.2632C88.8071 73.786 89.837 74.2138 90.1136 74.2138C91.2851 74.2138 93.7745 66.9631 93.7909 63.5051C93.8089 59.7165 91.5501 49.7055 89.6546 45.1717C89.0901 43.8218 88.5657 42.5334 88.4888 42.3084C87.8376 40.3932 86.7455 37.8743 84.6782 33.5139C82.8637 29.6885 81.8296 28.4009 80.573 28.4009C79.1888 28.4009 79.0039 28.7257 79.5234 30.2416Z" fill="currentColor"/>
<path fill-rule="evenodd" clip-rule="evenodd" d="M54.8106 60.146C51.3141 61.5686 44.7236 67.0163 44.7236 68.4848C44.7236 68.9364 44.3153 69.3053 43.8171 69.3053C43.2641 69.3053 43.1054 70.0841 43.4105 71.3006C43.6862 72.3977 43.5464 73.5209 43.0997 73.7974C42.6326 74.0862 42.4951 73.7598 42.7749 73.0292C43.9014 70.0931 42.1335 72.0827 40.1668 75.9629C38.4619 79.3269 38.2558 80.3037 39.1303 80.8584C40.1725 81.5186 40.8057 81.6634 41.9732 81.5071C42.2603 81.4687 42.7209 81.8016 42.9966 82.2475C43.8826 83.6808 53.5458 86.4852 57.5823 86.4802C61.3897 86.4762 66.3587 85.4879 69.6753 84.0751C70.5752 83.6914 72.51 82.9273 73.9752 82.3759C78.2088 80.7831 84.5833 73.3957 81.7233 73.3957C81.3756 73.3957 80.3963 72.1048 79.5463 70.5275C74.1879 60.5763 64.1319 56.3558 54.8106 60.146Z" fill="var(--primary)"/>
</svg>
