<svg width="125" height="125" viewBox="0 0 125 125" fill="none" xmlns="http://www.w3.org/2000/svg">
<path fill-rule="evenodd" clip-rule="evenodd" d="M48.8209 12.7717C47.6501 16.3296 47.5896 16.376 37.7633 21.0974C30.8147 24.4366 31.1909 24.2203 31.6176 24.6321C31.8082 24.8153 35.7813 25.7665 40.4479 26.7459C52.8553 29.3493 59.0142 31.5443 61.1072 34.1079L62.9069 36.3136L65.7614 33.5652C68.693 30.7413 69.4329 30.516 90.9507 25.9065L96.0788 24.8078L88.4657 21.1902C79.8276 17.0853 77.4313 15.1688 76.6839 11.7657L76.1611 9.38437H63.0478H49.9353L48.8209 12.7717Z" fill="currentColor"/>
<path fill-rule="evenodd" clip-rule="evenodd" d="M22.1136 27.707C14.7184 29.4429 9.69386 34.4311 7.60249 42.1138C6.62227 45.7132 6.41926 52.6162 7.20643 55.5527C7.6837 57.3309 7.78644 57.3483 10.3029 56.0673C14.4889 53.937 20.9221 48.9994 24.0724 45.4994C25.6782 43.7154 27.4406 41.8014 27.99 41.2462C29.2909 39.9288 35.1515 29.2664 34.7538 28.9383C34.2882 28.5539 26.7637 26.7732 26.003 26.8677C25.6352 26.9141 23.8852 27.2911 22.1136 27.707Z" fill="currentColor"/>
<path fill-rule="evenodd" clip-rule="evenodd" d="M95.3505 27.7849C93.2997 28.2373 91.524 28.6997 91.4039 28.8115C91.2837 28.9242 91.7395 30.3419 92.4164 31.9618C94.3719 36.6409 103.107 47.6322 107.494 50.9341C112.849 54.9628 117.652 57.5836 118.605 56.9953C119.031 56.7318 119.38 53.7555 119.38 50.3815C119.38 39.1913 115.22 32.164 106.346 28.36C102.316 26.6332 100.906 26.5594 95.3505 27.7849Z" fill="currentColor"/>
<path fill-rule="evenodd" clip-rule="evenodd" d="M36.8808 31.9635C36.0837 34.528 29.4997 44.636 26.6196 47.7176C24.3119 50.1876 24.2846 50.3243 25.4438 53.6105C26.9435 57.862 30.088 63.2562 32.0841 65.0037C35.2162 67.7447 39.2664 68.3885 46.6193 67.313C59.9282 65.3674 61.4089 63.6464 61.3318 50.2191C61.2539 36.718 59.8751 34.8611 47.6492 31.7804C39.0907 29.6236 37.6009 29.6493 36.8808 31.9635Z" fill="var(--primary)"/>
<path fill-rule="evenodd" clip-rule="evenodd" d="M80.4358 31.304C64.9005 34.8329 64.2012 35.7552 64.8433 51.8572C65.2336 61.6553 66.0829 63.5395 70.9053 65.3069C75.3242 66.9268 84.1561 67.9518 88.5063 67.3494C93.8706 66.6061 97.4865 62.4624 100.564 53.5309C101.678 50.2961 101.677 50.2895 98.0773 46.2037C96.0962 43.9541 93.0875 39.4117 91.3914 36.1098C87.9876 29.4844 88.1442 29.5531 80.4358 31.304Z" fill="var(--primary)"/>
<path fill-rule="evenodd" clip-rule="evenodd" d="M14.2884 57.2083C8.64986 60.8599 7.09376 62.3381 5.79453 65.2746C4.29975 68.6536 2.42795 76.7796 1.37895 84.4391L0.915771 87.8206L10.2979 90.4464C21.0348 93.4517 20.7763 93.412 20.7805 92.0365C20.7821 91.4673 21.8875 88.2043 23.2372 84.7863C24.587 81.3684 25.7048 77.7325 25.7205 76.7075C25.7669 73.6558 26.859 74.5764 29.1757 79.6184C33.5068 89.0428 33.622 89.6394 33.5847 102.394L33.5491 114.616H63.4894H93.4307L92.7827 110.68C91.5655 103.287 91.945 93.5429 93.6651 87.9805C95.8311 80.9789 99.2333 74.0701 99.7271 75.6718C101.096 80.1155 105.598 91.9528 106.144 92.5428C106.507 92.9355 110.897 92.0597 115.902 90.5972L125 87.9383L124.616 84.4979C123.095 70.9173 119.905 62.3107 115.354 59.5142C113.871 58.6028 110.797 56.6589 108.523 55.1948C104.888 52.854 104.333 52.704 103.923 53.9519C101.512 61.2924 97.2654 67.1149 92.4504 69.6802C86.7721 72.7054 69.6359 70.165 65.3306 65.6591L62.926 63.1435L60.7021 65.5928C58.1989 68.3503 55.4446 69.343 46.4461 70.7325C35.3678 72.4436 29.0026 68.937 23.8719 58.297L21.1914 52.738L14.2884 57.2083Z" fill="currentColor"/>
</svg>
