<svg width="125" height="125" viewBox="0 0 125 125" fill="none" xmlns="http://www.w3.org/2000/svg">

<path fill-rule="evenodd" clip-rule="evenodd" d="M48.8132 11.2219C47.1875 14.5678 46.3049 15.2306 38.5851 18.905C33.9378 21.1166 29.9876 23.0323 29.8071 23.1636C28.9687 23.7704 32.1508 26.3088 36.5088 28.5088C43.9846 32.2826 46.0265 35.9979 47.7191 48.9083C48.0183 51.1926 49.135 54.7658 50.1999 56.8488C51.8758 60.1278 60.3503 72.7556 60.8744 72.7556C61.3517 72.7556 61.4871 15.0325 61.0182 11.5304L60.4866 7.56012H55.5392H50.5919L48.8132 11.2219Z" fill="var(--primary)"/>
<path fill-rule="evenodd" clip-rule="evenodd" d="M64.0949 26.9934C64.1543 37.6813 64.4368 51.9833 64.7218 58.7754L65.2408 71.1249L68.6694 66.7158C70.5551 64.2911 73.0827 60.4512 74.2863 58.1828C76.3617 54.2702 76.9451 52.153 79.089 40.7555C80.2007 34.8478 81.9576 32.7122 89.4208 28.1978C92.6062 26.2712 95.3286 24.3187 95.4715 23.859C95.6144 23.3993 92.1682 21.3615 87.8135 19.3304C79.4994 15.453 77.2 13.645 75.7649 9.85868C74.9382 7.67463 74.6215 7.56012 69.4409 7.56012H63.9871L64.0949 26.9934Z" fill="var(--primary)"/>
<path fill-rule="evenodd" clip-rule="evenodd" d="M18.8517 25.8333C14.202 27.6604 10.4282 31.3599 7.88219 36.5855C6.36681 39.6957 5.93635 41.9918 5.92799 46.9951C5.92297 50.5257 6.1896 53.6852 6.52143 54.017C6.85325 54.3488 9.19362 53.2472 11.722 51.5688C14.2496 49.8896 16.7003 48.5163 17.1675 48.5163C17.6339 48.5163 18.0159 48.1402 18.0159 47.6805C18.0159 47.2208 18.4865 46.8446 19.0607 46.8446C19.6358 46.8446 22.8278 44.0237 26.1562 40.5758C31.4696 35.0702 33.8969 33.2447 33.8969 34.7542C33.8969 35.743 30.8561 39.9573 27.4609 43.6743C24.1443 47.3052 23.8668 47.9613 23.8668 52.1773C23.8668 56.6825 23.9086 56.7585 26.8808 57.7398C29.7854 58.6985 36.6476 58.4678 41.6284 57.2442C43.3694 56.817 43.9269 56.9859 43.9269 57.9404C43.9269 60.8993 32.0873 63.0666 26.8349 61.0698C24.7871 60.2916 24.706 60.3652 25.2117 62.5325C27.3355 71.6273 29.3198 76.2662 35.7382 87.1488C38.3736 91.6172 41.5122 97.2115 42.7133 99.5819L44.8965 103.891L48.2415 100.652C50.0812 98.8707 52.5394 95.8006 53.7046 93.8305C56.0717 89.8277 58.9721 81.186 58.9721 78.1385C58.9721 77.0435 56.5439 72.5902 53.5759 68.243C46.9017 58.4687 46.07 56.4944 43.9788 45.4605C43.0577 40.6018 41.8599 36.0916 41.3166 35.4363C40.7725 34.7818 38.0151 32.9521 35.1874 31.3716C32.3598 29.7902 29.1552 27.5468 28.0652 26.3866C25.7483 23.9209 23.988 23.8147 18.8517 25.8333Z" fill="var(--primary)"/>
<path fill-rule="evenodd" clip-rule="evenodd" d="M96.8848 26.644C95.9002 27.8953 92.9597 30.0359 90.3494 31.4016C87.7399 32.7665 84.9967 34.5552 84.2544 35.376C83.5047 36.2043 82.2301 40.6468 81.3867 45.366C79.654 55.0726 76.7987 61.6707 71.1643 68.9943C66.426 75.152 65.9913 76.6933 67.3094 82.6662C68.8407 89.607 71.9659 95.6476 76.2337 99.9154C79.8069 103.489 81.5396 104.068 81.5396 101.691C81.5396 101.109 84.2135 96.1474 87.4808 90.6652C94.2201 79.3563 96.6742 74.3061 98.5908 67.7974C100.608 60.9511 100.669 61.0489 94.7041 61.598C88.8583 62.1371 82.5502 60.809 81.8113 58.884C81.003 56.7777 82.139 56.588 87.159 57.9922C91.8681 59.3095 93.2857 59.2585 98.8833 57.5659C101.505 56.7735 101.6 56.5905 101.6 52.2892C101.6 48.141 101.342 47.5676 97.8486 43.9743C95.7857 41.8521 93.5197 38.9961 92.8126 37.6286C90.6963 33.5372 93.0909 34.592 98.2681 40.0333C100.828 42.7231 105.164 46.3891 107.903 48.1803C110.642 49.9715 113.072 51.664 113.302 51.9407C114.254 53.0908 117.574 54.4081 118.334 53.9384C118.784 53.66 119.149 50.5398 119.144 47.0042C119.132 36.6799 115.043 29.8311 106.615 26.0163C101.54 23.7194 99.0597 23.8791 96.8848 26.644Z" fill="var(--primary)"/>
<path fill-rule="evenodd" clip-rule="evenodd" d="M13.8367 53.9016C8.69541 57.408 7.15665 58.9986 5.28186 62.7498C2.21349 68.8891 -0.970232 86.1291 0.964737 86.1291C1.23973 86.1291 4.99933 87.0694 9.31895 88.2187C13.6386 89.368 17.6882 90.3083 18.3184 90.3083C19.6474 90.3083 24.7026 77.1229 24.7026 73.6584C24.7026 72.4096 24.0874 69.3446 23.3352 66.8479C22.5837 64.3504 21.549 59.4541 21.0366 55.967L20.1055 49.6263L13.8367 53.9016Z" fill="currentColor"/>
<path fill-rule="evenodd" clip-rule="evenodd" d="M104.205 56.7008C103.627 60.244 102.418 65.661 101.52 68.7386L99.8855 74.3337L102.943 82.321C104.624 86.7142 106.42 90.3141 106.934 90.3208C107.448 90.3283 111.723 89.2936 116.433 88.0223C123.871 86.0154 124.997 85.478 125 83.94C125.007 79.8193 122.296 67.0502 120.72 63.7796C118.858 59.9163 113.742 55.0057 108.556 52.1037L105.257 50.2573L104.205 56.7008Z" fill="currentColor"/>
<path fill-rule="evenodd" clip-rule="evenodd" d="M59.0673 89.9781C58.0476 92.8458 56.4904 95.5055 53.5616 99.3863C51.6751 101.885 45.1288 107.861 44.2771 107.861C43.7781 107.861 41.4277 103.935 39.0539 99.1355C36.681 94.337 34.4393 90.2255 34.0732 89.999C33.7062 89.7725 33.5658 92.0852 33.7605 95.1377C33.9544 98.191 33.6469 103.828 33.076 107.664C32.5051 111.5 32.1892 114.79 32.3739 114.975C32.5578 115.159 39.0882 115.362 46.8849 115.425L61.0616 115.541L61.2814 106.059C61.4018 100.844 61.2137 94.3595 60.8635 91.6498L60.2257 86.7216L59.0673 89.9781Z" fill="currentColor"/>
<path fill-rule="evenodd" clip-rule="evenodd" d="M64.8229 97.9988C64.8229 103.754 64.5964 110.114 64.3197 112.132L63.8157 115.801H78.5933H93.371L92.8737 112.876C92.6003 111.267 92.1482 105.523 91.8698 100.113L91.3625 90.274L88.6176 94.6797C87.108 97.102 85.2307 101.06 84.4459 103.473C83.4454 106.549 82.5819 107.861 81.558 107.861C79.0931 107.861 70.2642 98.4234 67.4391 92.769L64.8229 87.5341V97.9988Z" fill="currentColor"/>
</svg>
