<svg width="125" height="125" viewBox="0 0 125 125" fill="none" xmlns="http://www.w3.org/2000/svg">

<path fill-rule="evenodd" clip-rule="evenodd" d="M16.9801 12.2914C16.0149 13.8518 16.3296 31.7523 17.4196 37.3608C18.3714 42.2555 21.5839 53.4551 22.9847 56.7625C28.5489 69.9028 28.9655 72.2608 27.7995 84.0303C27.2478 89.6049 27.0074 94.5083 27.2667 94.9272C27.5252 95.3462 26.8628 98.6686 25.794 102.312C22.7949 112.531 21.9207 111.701 35.6743 111.701C42.1958 111.701 47.5316 111.573 47.5316 111.418C47.5316 111.261 46.3309 108.505 44.8637 105.291C41.633 98.218 40.9326 94.709 41.8955 90.423C42.429 88.0484 42.316 86.1607 41.4757 83.4288C40.8425 81.3704 40.5026 78.4416 40.7192 76.9199C41.3311 72.6355 39.5398 67.2191 36.3415 63.6793C33.6791 60.7316 31.7266 55.3728 31.7195 50.9928C31.7187 50.2489 30.3939 48.9415 28.7552 48.0664C25.6114 46.3882 20.6551 39.8042 20.6551 37.3063C20.6551 35.1064 22.9436 35.4929 23.8376 37.8446C26.1711 43.9835 31.9282 47.6719 39.1746 47.6719C43.6582 47.6719 54.2168 45.5629 57.0364 44.1053C60.4837 42.3219 61.7604 38.4762 61.7604 29.8741C61.7604 24.2791 62.0252 22.4436 62.8805 22.1155C64.5445 21.4768 64.9223 23.272 64.9223 31.8203C64.9223 38.3323 65.1697 39.8683 66.4883 41.5449C68.6337 44.2713 73.0485 45.8815 81.453 47C92.2399 48.4364 97.1212 46.6554 101.383 39.7283C102.708 37.5758 104.096 35.8147 104.468 35.8147C107.734 35.8147 103.611 43.3322 98.0793 47.4625C94.5861 50.0703 94.1703 50.7019 94.1703 53.3998C94.1703 57.3949 92.334 61.613 89.3562 64.4587C87.9389 65.8136 86.7524 67.8997 86.4939 69.4941C86.2512 70.9905 85.7785 72.3849 85.4433 72.592C85.1082 72.7991 85.022 75.0362 85.2512 77.5634C85.5572 80.9412 85.3216 82.828 84.3619 84.6849C83.3312 86.6785 83.245 87.5646 83.9548 88.8919C85.6141 91.9906 84.4252 99.7065 81.3249 105.97L78.4878 111.701H90.6764C99.6207 111.701 102.866 111.449 102.866 110.754C102.866 110.233 101.983 106.915 100.906 103.381C99.1836 97.7342 98.9195 95.2378 98.7322 82.7877L98.518 68.6198L102.172 59.134C104.181 53.9168 106.624 46.4467 107.6 42.5338C109.471 35.0368 110.612 19.2729 109.654 14.1664L109.118 11.3096H63.3524C27.7576 11.3096 17.4513 11.5278 16.9801 12.2914Z" fill="currentColor"/>
<path fill-rule="evenodd" clip-rule="evenodd" d="M61.6679 44.2262C58.9929 47.449 46.7783 50.822 37.747 50.8307L34.6815 50.8339L35.2009 54.0788C35.8325 58.0297 37.7051 61.8193 39.3343 62.4445C39.9983 62.6991 41.4916 62.1481 42.6528 61.2209C43.8148 60.2929 46.5135 58.6075 48.6502 57.4755C52.4018 55.489 53.9014 55.2859 62.9461 55.5389C64.2504 55.5752 67.0962 55.5523 69.27 55.4875C73.9687 55.3476 78.2144 56.9902 82.7391 60.6976L86.0536 63.4137L87.6417 61.6691C90.0385 59.0367 91.0084 56.7586 91.0084 53.7666V51.0616L84.8244 50.5454C76.3125 49.8355 69.8803 48.0585 65.9626 45.3353C63.071 43.3243 62.5319 43.1851 61.6679 44.2262Z" fill="var(--primary)"/>
<path fill-rule="evenodd" clip-rule="evenodd" d="M51.9774 59.33C46.7681 61.0651 42.7888 64.8792 42.7888 68.1376C42.7888 71.86 45.1784 72.6631 53.1323 71.6134C60.5526 70.6332 61.698 69.6356 61.7351 64.1196C61.7557 61.1647 61.4031 60.1585 60.0032 59.179C57.8562 57.6748 56.891 57.6929 51.9774 59.33Z" fill="var(--primary)"/>
<path fill-rule="evenodd" clip-rule="evenodd" d="M65.9105 58.8439C65.3548 59.4067 64.9224 61.7995 64.9224 64.3077C64.9224 70.5344 66.0156 71.3549 75.0896 71.943L82.264 72.4078L83.079 70.2648C84.2071 67.2989 84.1612 67.0823 81.8182 64.2983C78.0579 59.8296 68.2543 56.4677 65.9105 58.8439Z" fill="var(--primary)"/>
<path fill-rule="evenodd" clip-rule="evenodd" d="M48.7324 75.12C46.5672 75.2963 44.527 75.8623 44.1997 76.3777C43.0796 78.1389 43.5626 82.4367 45.0471 83.9213C46.8716 85.7457 56.8973 86.9488 59.3478 85.6374C61.407 84.5355 62.1754 81.4201 61.2805 77.7997C60.5904 75.0077 60.4861 74.9421 56.6222 74.8718C54.4484 74.8315 50.8983 74.9437 48.7324 75.12Z" fill="var(--primary)"/>
<path fill-rule="evenodd" clip-rule="evenodd" d="M65.9104 75.4385C64.5848 76.7895 64.697 83.2754 66.078 85.0983C67.0661 86.4018 67.9064 86.4966 73.9813 85.9907C81.2427 85.386 81.6363 85.1347 82.6379 80.4621C83.4932 76.4694 82.0482 75.5468 74.0129 74.9548C68.7166 74.5651 66.6463 74.6884 65.9104 75.4385Z" fill="var(--primary)"/>
<path fill-rule="evenodd" clip-rule="evenodd" d="M44.9586 90.7945C44.2164 94.679 45.3958 99.9405 48.2787 105.599L51.1853 111.306L62.728 111.524L74.2707 111.742L75.8192 109.548C80.4111 103.037 82.9352 93.0205 80.823 89.6878C79.9969 88.3835 68.9072 89.1867 66.8369 90.7005C66.0093 91.306 65.3508 93.3597 65.0306 96.3319C64.6654 99.7286 64.1801 101.077 63.26 101.253C62.2481 101.447 61.8893 100.5 61.4766 96.5548C61.1928 93.8371 60.683 91.336 60.3447 90.9977C59.5146 90.1677 51.9766 88.7772 48.3063 88.7772C45.7586 88.7772 45.2906 89.0594 44.9586 90.7945Z" fill="var(--primary)"/>
</svg>
