<svg width="125" height="125" viewBox="0 0 125 125" fill="none" xmlns="http://www.w3.org/2000/svg">

    <path fill-rule="evenodd" clip-rule="evenodd"
          d="M50.7208 21.7812C50.065 25.2773 47.0289 27.9049 40.4253 30.6907C37.6786 31.8494 35.1409 33.088 34.7853 33.4435C34.4306 33.7982 37.3446 34.7051 41.2623 35.4591C49.6266 37.0685 57.726 39.4635 58.3794 40.5209C59.4552 42.2624 57.7805 42.6609 54.0448 41.5513C51.8979 40.914 47.8236 39.9503 44.991 39.4113L39.8417 38.43L37.0682 44.2642C33.6712 51.4114 27.3056 57.9275 18.4675 63.3041L12.3553 67.0228L10.9724 72.3817C10.2122 75.3295 9.25933 81.3695 8.85543 85.8039C8.45154 90.2383 7.41876 96.2845 6.5603 99.2392C5.70183 102.194 5 104.686 5 104.779C5 104.871 9.27622 104.946 14.5031 104.946H24.0061L24.5152 101.104C24.7955 98.992 26.0479 94.2558 27.2979 90.58C28.5488 86.9035 29.5716 82.9437 29.5716 81.7788C29.5716 78.249 30.5921 79.3662 33.4109 85.9821C35.5962 91.1106 36.1491 93.4772 36.3694 98.6449L36.6397 105H62.9467H89.2528L89.7773 99.0496C90.3117 92.9858 92.4441 85.7195 94.8498 81.7635L96.1866 79.5651L96.7318 82.4714C97.032 84.0701 98.2837 88.483 99.5138 92.2786C100.744 96.0741 101.751 100.489 101.751 102.09V105H111.349C122.219 105 122.034 105.137 119.735 98.7624C119.069 96.9141 118.043 90.7375 117.455 85.0361C116.867 79.3347 115.867 72.9423 115.232 70.8307C114.196 67.3876 113.659 66.7725 110.025 64.8674C104.089 61.7545 97.4428 56.1607 93.0722 50.5975C91.3399 48.3922 87.1612 40.2268 87.1612 39.0466C87.1612 38.539 86.4309 38.3209 85.4335 38.5306C76.3397 40.4418 72.419 41.364 70.8441 41.9629C68.7901 42.7438 66.713 41.9038 67.5101 40.6145C68.1366 39.6002 71.5367 38.6043 81.0183 36.6577C85.0304 35.8338 89.3496 34.851 90.6166 34.4724L92.9201 33.7852L89.4648 32.2587C87.5643 31.4186 84.2617 29.9781 82.1255 29.0574C77.9645 27.2645 75.6433 24.3766 75.6433 20.9934V19H63.4427H51.2429L50.7208 21.7812Z"
          fill="currentColor"/>
    <path fill-rule="evenodd" clip-rule="evenodd"
          d="M22.6608 37.8833C15.8814 40.8149 11.9108 48.0313 11.9108 57.4222C11.9108 61.4397 12.1726 62.7681 12.9643 62.7681C14.9431 62.7681 25.3422 55.3728 28.8037 51.5036C30.7042 49.3797 33.3594 45.4298 34.704 42.7269L37.1496 37.8126L34.32 37.2813C29.7482 36.422 25.5372 36.6393 22.6608 37.8833Z"
          fill="var(--primary)"/>
    <path fill-rule="evenodd" clip-rule="evenodd"
          d="M91.5418 37.2145C89.0586 37.5884 89.1584 38.5536 92.2836 44.3886C95.5155 50.4232 104.431 58.7222 111.541 62.3143L114.036 63.5751V57.3102C114.036 49.7513 113.042 46.114 109.951 42.3637C105.956 37.5178 100.206 35.9091 91.5418 37.2145Z"
          fill="var(--primary)"/>
    <path fill-rule="evenodd" clip-rule="evenodd"
          d="M31.3353 64.3553C34.8874 70.7945 38.4058 72.7503 46.4399 72.7503C52.2319 72.7503 53.2478 73.5166 49.5083 75.0654C46.7048 76.2264 39.9154 75.6805 36.761 74.0395C34.2532 72.7357 31.1072 70.1342 31.1072 69.3648C31.1072 69.0799 30.4515 68.1424 29.6491 67.2816C28.1663 65.6898 27.1466 62.3773 27.906 61.6186C28.7169 60.807 29.8971 61.7491 31.3353 64.3553Z"
          fill="var(--background)"/>
    <path fill-rule="evenodd" clip-rule="evenodd"
          d="M98.6791 62.4226C98.6791 66.6251 92.0624 73.6433 86.8671 74.951C80.8102 76.4767 74.8754 75.9638 74.8754 73.9159C74.8754 73.2356 76.7927 72.8424 81.2571 72.6082C85.2369 72.3994 88.2653 71.8342 89.3043 71.1063C91.293 69.7134 96.3755 63.2012 96.3755 62.0463C96.3755 61.5986 96.8938 61.2324 97.5273 61.2324C98.1608 61.2324 98.6791 61.7676 98.6791 62.4226Z"
          fill="var(--background)"/>
</svg>
