<svg width="125" height="125" viewBox="0 0 125 125" fill="none" xmlns="http://www.w3.org/2000/svg">

<path fill-rule="evenodd" clip-rule="evenodd" d="M20.09 3.6386C18.8233 5.83895 8.66494 39.8649 9.00852 40.7559C9.14989 41.1217 12.2248 40.5578 15.8413 39.5025C19.4579 38.4463 27.231 36.9569 33.1153 36.1917C43.0962 34.8938 44.3529 34.8914 51.8375 36.1555C56.2497 36.901 61.4222 38.3065 63.3308 39.2781C66.6769 40.982 69.6786 43.6755 69.6786 44.9741C69.6786 45.3185 71.1844 47.2041 73.0256 49.1636C77.3983 53.8207 80.0335 59.4864 81.5771 67.5537C83.9081 79.7333 82.6546 96.6201 78.7134 106.154C76.2468 112.119 75.5868 117.388 77.021 119.655C78.0534 121.286 114.236 121.513 115.852 119.898C117.49 118.262 115.682 116.181 111.522 114.914C102.152 112.062 94.5194 106.848 92.6972 102.054C91.8029 99.7024 91.4667 54.8128 92.2656 44.4769C92.8393 37.0638 92.735 35.8949 91.2423 32.9697C90.3283 31.1786 88.7847 28.9931 87.8115 28.1136C86.175 26.6333 85.6161 26.5873 80.3113 27.4972C64.7864 30.1594 49.6824 26.7722 35.9789 17.5541C33.9446 16.1856 29.6146 12.3611 26.3556 9.05521C23.0974 5.74853 20.2782 3.31147 20.09 3.6386Z" fill="currentColor"/>
<path fill-rule="evenodd" clip-rule="evenodd" d="M25.3694 4.4384C33.4836 15.062 50.9335 24.2201 65.6997 25.6034C72.9994 26.2873 80.5958 25.4875 80.1371 24.082C79.1771 21.1395 62.55 11.669 52.0069 8.05988C46.0881 6.03379 31.1904 3 27.1587 3C24.5376 3 24.3724 3.13315 25.3694 4.4384Z" fill="var(--primary)"/>
<path fill-rule="evenodd" clip-rule="evenodd" d="M27.5745 39.5896C24.0829 40.248 20.0431 41.2697 18.5981 41.8598L15.9712 42.9317L22.4818 45.4969C34.469 50.219 42.9095 50.8913 56.5275 48.2069C61.1148 47.3027 65.6724 46.5474 66.6571 46.5285C68.2484 46.4981 68.1095 46.1972 65.3987 43.8004C63.7228 42.3193 60.9487 40.636 59.2342 40.0614C54.4439 38.4553 35.1101 38.1668 27.5745 39.5896Z" fill="var(--primary)"/>
<path fill-rule="evenodd" clip-rule="evenodd" d="M67.6805 52.4851C63.3644 58.6464 62.8474 69.8643 66.5322 77.3859C69.0022 82.4269 70.7373 85.4722 71.4507 86.0171C72.082 86.4988 75.078 95.8788 75.867 99.843C77.2438 106.759 79.4614 96.2363 79.5058 82.5764C79.5559 66.9357 77.4764 57.7168 72.7272 52.5221C70.5992 50.1952 69.2915 50.1853 67.6805 52.4851Z" fill="var(--primary)"/>
</svg>
